<svg width="7" height="13" viewBox="0 0 7 13" fill="none" xmlns="http://www.w3.org/2000/svg">
<path d="M0.393299 0.290634C0.143496 0.511768 0.000309404 0.82991 0.000309419 1.16355C0.000309431 1.44667 0.103206 1.71956 0.289783 1.93186L4.25439 6.44349L0.295052 10.8917C0.104601 11.1051 -6.33341e-08 11.3802 -5.08366e-08 11.6661C-3.63477e-08 11.9976 0.141947 12.3143 0.38989 12.5353C0.603121 12.7248 0.877253 12.8291 1.16146 12.8291C1.49293 12.8291 1.80905 12.687 2.02833 12.4398L6.6723 7.22249C6.86275 7.00926 6.96735 6.7342 6.96735 6.44829C6.96735 6.16486 6.86461 5.89182 6.67756 5.67952L2.0336 0.395235C1.82858 0.161859 1.54515 0.0223913 1.23584 0.00240034C0.926221 -0.0172797 0.62745 0.0845318 0.393299 0.290634Z" fill="white"/>
</svg>
